Simulation
nRows=32
nColumns=15
endheader
time  TH_x TH_y TH_z SC_y  SC_z  SC_x  AC_y  AC_z  AC_x  GH_y  GH_z  GH_yy  EL_x  PS_y
0.0  0.000000  0.000000  0.000000  -40.97484877243665  6.293857566463187  5.290427962726946  38.477736873227826  -1.9184779452811103  -7.894534200614513  109.64652646728234  6.957487739762392  -77.94877758834265  22.65697905942602  120.000000
0.05745  0.000000  0.000000  0.000000  -39.1560750995173  5.135446616650096  4.2296113373330755  39.7383776877804  -2.3660947396498497  -6.486696855847561  62.57850156859607  5.915375199118966  -34.46336166924304  22.10199373127581  120.000000
0.1149  0.000000  0.000000  0.000000  -37.330351653877834  3.8900785180464332  2.9868485049105047  41.11854580312082  -2.955316895986747  -4.966763573072729  25.315915347737683  8.53854013223404  -0.7347493961329071  21.722007783996034  120.000000
0.17235  0.000000  0.000000  0.000000  -35.63942997411322  2.443810707440116  1.6092282858267906  42.662926660853394  -3.778205155428458  -3.2680042442401027  7.240025755535466  12.963128160787198  13.87605173079418  21.59667869826296  120.000000
0.2298  0.000000  0.000000  0.000000  -34.273389737471376  0.6713856302391205  0.17926470942795508  44.47660174871242  -4.940051025546814  -1.3266410052093132  -2.870447591969538  18.401209061745924  20.61917696192925  21.740113939435545  120.000000
0.28725  0.000000  0.000000  0.000000  -33.28749053403645  -1.4637844316235131  -1.2177651367648223  46.57656141121082  -6.530398451613189  0.8444276171731855  -9.674810030891052  24.724260359296412  24.19372187127922  22.097563152064982  120.000000
0.3447  0.000000  0.000000  0.000000  -32.66109949504117  -3.859388449441729  -2.4831850621255844  48.790794664429484  -8.583337019649072  3.1760942636414202  -14.838560125660452  31.787600144504463  26.237302617540696  22.56303800856987  120.000000
0.40215  0.000000  0.000000  0.000000  -32.33225209003919  -6.314266030133881  -3.5813337329147257  50.8504278788305  -10.942339109071803  5.581944239271579  -18.927213855073028  39.25439309220172  27.225799219543422  22.992542993466  120.000000
0.4596  0.000000  0.000000  0.000000  -32.198606825567246  -8.530100598985708  -4.586271641388366  52.564231228471385  -13.21324773041086  7.984802396197337  -22.0235436988836  46.58132304767582  27.21118860406745  23.282493059370267  120.000000
0.51705  0.000000  0.000000  0.000000  -32.20682751094509  -10.17626099845655  -5.57432805018603  53.896708952165284  -14.909570534369527  10.245471372769188  -24.034109416986574  53.19409907039427  26.147708086975122  23.4004963094962  120.000000
0.5745  0.000000  0.000000  0.000000  -32.30880056093896  -11.052556300838692  -6.537665195319736  54.94481494563877  -15.647914875922732  12.174656623124667  -25.001313945807286  58.73965078678935  24.1552718104394  23.331762310091996  120.000000
0.63195  0.000000  0.000000  0.000000  -32.53034677583285  -11.09398928675032  -7.442172312903568  55.91198311211555  -15.251680228540256  13.758546432130633  -25.246387880547232  63.17581918538901  21.63163345267474  23.08526508190837  120.000000
0.6894  0.000000  0.000000  0.000000  -32.98242119804501  -10.327192200522322  -8.255339564389182  57.05269334489716  -13.734154257462167  15.200318257640973  -25.333125970909435  66.66000300643876  19.23523796936221  22.718881159951554  120.000000
0.74685  0.000000  0.000000  0.000000  -33.80549811170617  -8.810265915972222  -8.964662792998825  58.5237299691214  -11.207379768507241  16.733306969591244  -25.634341095763688  69.2674851585943  17.3792502593745  22.290396518565878  120.000000
0.8043  0.000000  0.000000  0.000000  -35.056093119890534  -6.605315906025403  -9.576478544743651  60.26054153491744  -7.8276673564509585  18.446279521507723  -26.124185864214635  70.91425908566708  15.975026506995137  21.828813759327634  120.000000
0.86175  0.000000  0.000000  0.000000  -36.57278992097468  -3.8996520435935618  -10.068611493382743  62.08256630352263  -3.7958475482255665  20.312704253463064  -26.791944273596215  71.65003452895486  14.914357975445423  21.359858168699375  120.000000
0.9192  0.000000  0.000000  0.000000  -38.11447358940978  -1.0258828889021254  -10.44830377487079  63.77238214170508  0.6195883975447439  22.228326389674265  -27.584940238660973  71.80549128303473  14.039535385182068  20.904694158929406  120.000000
0.97665  0.000000  0.000000  0.000000  -39.53661332815458  1.7328990086938274  -10.754390848543267  65.11409763325206  5.14046577312831  24.019962050299526  -28.22290940482371  71.69173835464849  12.985486093046271  20.459124675018888  120.000000
1.0341  0.000000  0.000000  0.000000  -40.80530110006624  4.2555071962032  -10.944249262865045  65.98396914520745  9.57348147767611  25.55916047135325  -28.48558224449214  71.38331020566434  11.56635063919725  20.02465974981527  120.000000
1.09155  0.000000  0.000000  0.000000  -41.943690686249006  6.482119226444397  -10.927926345278276  66.35943115713083  13.758900959426242  26.811832728829284  -28.33572941107542  70.91745035365564  9.88392388714709  19.611972940235276  120.000000
1.149  0.000000  0.000000  0.000000  -43.002769449203306  8.365447636345671  -10.627226223735866  66.30417930916903  17.527967769308813  27.799516672755313  -27.837259510458143  70.38568542211232  8.146583153601268  19.22174785963448  120.000000
1.20645  0.000000  0.000000  0.000000  -44.029622539495094  9.883918803761334  -9.985569409256438  65.94142634658911  20.72990631984563  28.555633797607204  -27.095418063485628  69.8728671489077  6.558417220458997  18.84899988109997  120.000000
1.2639  0.000000  0.000000  0.000000  -45.04880339897653  11.046324250301922  -8.98913451805449  65.42313665998407  23.263970461824826  29.098615791893067  -26.21826466384254  69.4293439466201  5.252762979620972  18.490776680855568  120.000000
1.32135  0.000000  0.000000  0.000000  -46.053991030164404  11.88550246923997  -7.691102104305423  64.8923502514386  25.101217341153387  29.43455807325796  -25.297700396058712  69.07096633446729  4.270954335091256  18.151928219676343  120.000000
1.3788  0.000000  0.000000  0.000000  -47.003115263920954  12.4497310367896  -6.222849093171639  64.45481457908286  26.289422063975778  29.576980174107245  -24.412053123818957  68.7927097857621  3.576543105847901  17.84405075936222  120.000000
1.43625  0.000000  0.000000  0.000000  -47.82329536091748  12.799825105151678  -4.783948228834812  64.16654996160635  26.939743463463618  29.572558230737954  -23.63401428114476  68.58301438859138  3.09365339714265  17.58162109306168  120.000000
1.4937  0.000000  0.000000  0.000000  -48.42880969827842  13.010831779924262  -3.6183766233383112  64.04243959654467  27.203307005630492  29.51381417240197  -23.040790638926694  68.43311399707422  2.743031958820847  17.374538253143182  120.000000
1.55115  0.000000  0.000000  0.000000  -48.74568623872478  13.151631602868006  -2.9482577569273825  64.07639495597938  27.21628962647625  29.503484530874367  -22.703046057385095  68.33871816451862  2.466184467373742  17.227010640245513  120.000000
1.6086  0.000000  0.000000  0.000000  -48.73251835311227  13.247976826744704  -2.8810075078889734  64.26245493788063  27.027077705268177  29.577742640357837  -22.65083893291572  68.29498643781785  2.2279654452105686  17.14540371087246  120.000000
1.66605  0.000000  0.000000  0.000000  -48.391275862867516  13.274901172332848  -3.40054626940555  64.60398089083617  26.598097228627978  29.70728428859575  -22.870006282992776  68.29614461337698  2.0165378439507413  17.135194621102467  120.000000
1.7235  0.000000  0.000000  0.000000  -47.76846029327074  13.179752543634454  -4.4251225379299495  65.10841576249705  25.8670189006939  29.861888429491135  -23.324919232201747  68.33835360283088  1.8419054914879909  17.189523964118578  120.000000
1.78095  0.000000  0.000000  0.000000  -46.94437540787527  12.895651978912394  -5.832110917315833  65.77313512128288  24.778200927179345  30.03046239177482  -23.965585899065722  68.41962494103369  1.7314088295768193  17.286010379981523  120.000000
